<svg width="382" height="381" viewBox="0 0 382 381" fill="none" xmlns="http://www.w3.org/2000/svg">
<g filter="url(#filter0_d_699_17793)">
<g filter="url(#filter1_d_699_17793)">
<path d="M185.114 88.7906C206.907 85.887 223.718 67.2265 223.718 44.6394C223.718 20.0386 203.776 0.0957031 179.175 0.0957031C154.574 0.0957031 134.631 20.0386 134.631 44.6394C134.631 67.2265 151.443 85.887 173.236 88.7906V163.932L120.102 110.799C133.459 93.336 132.152 68.2533 116.18 52.2818C98.7851 34.8864 70.5816 34.8864 53.1862 52.2818C35.7908 69.6772 35.7908 97.8807 53.1862 115.276C69.1576 131.248 94.2401 132.555 111.703 119.198L164.836 172.331H89.6949C86.7913 150.538 68.1308 133.727 45.5437 133.727C20.9429 133.727 1 153.67 1 178.27C0.999997 202.871 20.9429 222.814 45.5437 222.814C68.1308 222.814 86.7913 206.003 89.6949 184.21H164.836L111.703 237.342C94.2402 223.986 69.1578 225.293 53.1864 241.265C35.791 258.66 35.791 286.864 53.1864 304.259C70.5818 321.654 98.7853 321.654 116.181 304.259C132.152 288.287 133.46 263.205 120.103 245.742L173.236 192.609V267.75C151.443 270.654 134.631 289.314 134.631 311.902C134.631 336.502 154.574 356.445 179.175 356.445C203.776 356.445 223.718 336.502 223.718 311.902C223.718 289.314 206.907 270.654 185.114 267.75V192.609L238.247 245.742C224.89 263.205 226.198 288.288 242.169 304.259C259.565 321.654 287.768 321.654 305.163 304.259C322.559 286.864 322.559 258.66 305.163 241.265C289.192 225.293 264.109 223.986 246.646 237.343L193.513 184.21H268.655C271.558 206.003 290.219 222.814 312.806 222.814C337.407 222.814 357.35 202.871 357.35 178.27C357.35 153.67 337.407 133.727 312.806 133.727C290.219 133.727 271.558 150.538 268.655 172.331H193.513L246.646 119.198C264.109 132.555 289.192 131.248 305.163 115.276C322.559 97.8808 322.559 69.6773 305.163 52.2819C287.768 34.8865 259.564 34.8865 242.169 52.2819C226.197 68.2534 224.89 93.3359 238.247 110.799L185.114 163.932V88.7906Z" fill="#BAE6FF"/>
<path d="M184.982 87.7993L184.114 87.915V88.7906V163.932V166.346L185.821 164.639L238.954 111.506L239.573 110.887L239.041 110.191C225.985 93.1212 227.264 68.6013 242.876 52.989C259.881 35.9841 287.451 35.9841 304.456 52.989C321.461 69.9939 321.461 97.5642 304.456 114.569C288.844 130.181 264.324 131.46 247.253 118.404L246.558 117.872L245.939 118.491L192.806 171.624L191.099 173.331H193.513H268.655H269.53L269.646 172.463C272.484 151.161 290.727 134.727 312.806 134.727C336.854 134.727 356.35 154.222 356.35 178.27C356.35 202.319 336.854 221.814 312.806 221.814C290.727 221.814 272.484 205.38 269.646 184.078L269.53 183.21H268.655H193.513H191.099L192.806 184.917L245.939 238.05L246.558 238.669L247.254 238.137C264.324 225.081 288.844 226.36 304.456 241.972C321.461 258.977 321.461 286.547 304.456 303.552C287.451 320.557 259.881 320.557 242.876 303.552C227.264 287.94 225.985 263.42 239.041 246.35L239.573 245.654L238.954 245.035L185.821 191.902L184.114 190.195V192.609V267.75V268.626L184.982 268.742C206.285 271.58 222.718 289.822 222.718 311.902C222.718 335.95 203.223 355.445 179.175 355.445C155.126 355.445 135.631 335.95 135.631 311.902C135.631 289.822 152.065 271.58 173.368 268.742L174.236 268.626V267.75V192.609V190.194L172.529 191.901L119.395 245.035L118.776 245.654L119.308 246.349C132.365 263.419 131.086 287.939 115.474 303.552C98.4687 320.557 70.8984 320.557 53.8935 303.552C36.8887 286.547 36.8887 258.977 53.8935 241.972C69.5058 226.36 94.0255 225.081 111.096 238.137L111.791 238.669L112.41 238.05L165.543 184.917L167.25 183.21H164.836H89.6949H88.8193L88.7036 184.078C85.8654 205.38 67.6229 221.814 45.5437 221.814C21.4952 221.814 2 202.319 2 178.27C2 154.222 21.4952 134.727 45.5437 134.727C67.6229 134.727 85.8653 151.161 88.7036 172.463L88.8193 173.331H89.6949H164.836H167.25L165.543 171.624L112.41 118.491L111.791 117.872L111.096 118.404C94.0255 131.46 69.5056 130.181 53.8933 114.569C36.8884 97.5641 36.8884 69.9938 53.8933 52.9889C70.8982 35.9841 98.4685 35.9841 115.473 52.9889C131.086 68.6013 132.365 93.1213 119.308 110.192L118.776 110.887L119.395 111.506L172.529 164.639L174.236 166.346V163.932V88.7906V87.915L173.368 87.7993C152.065 84.9611 135.631 66.7186 135.631 44.6394C135.631 20.5909 155.126 1.0957 179.175 1.0957C203.223 1.0957 222.718 20.5909 222.718 44.6394C222.718 66.7186 206.285 84.9611 184.982 87.7993Z" stroke="black" stroke-width="2"/>
</g>
</g>
<defs>
<filter id="filter0_d_699_17793" x="1" y="0.0957031" width="380.35" height="380.35" filterUnits="userSpaceOnUse" color-interpolation-filters="sRGB">
<feFlood flood-opacity="0" result="BackgroundImageFix"/>
<feColorMatrix in="SourceAlpha" type="matrix" values="0 0 0 0 0 0 0 0 0 0 0 0 0 0 0 0 0 0 127 0" result="hardAlpha"/>
<feOffset dx="20" dy="20"/>
<feGaussianBlur stdDeviation="2"/>
<feColorMatrix type="matrix" values="0 0 0 0 0 0 0 0 0 0 0 0 0 0 0 0 0 0 0.25 0"/>
<feBlend mode="normal" in2="BackgroundImageFix" result="effect1_dropShadow_699_17793"/>
<feBlend mode="normal" in="SourceGraphic" in2="effect1_dropShadow_699_17793" result="shape"/>
</filter>
<filter id="filter1_d_699_17793" x="0" y="0.0957031" width="358.35" height="365.11" filterUnits="userSpaceOnUse" color-interpolation-filters="sRGB">
<feFlood flood-opacity="0" result="BackgroundImageFix"/>
<feColorMatrix in="SourceAlpha" type="matrix" values="0 0 0 0 0 0 0 0 0 0 0 0 0 0 0 0 0 0 127 0" result="hardAlpha"/>
<feOffset dy="7.76"/>
<feGaussianBlur stdDeviation="0.5"/>
<feComposite in2="hardAlpha" operator="out"/>
<feColorMatrix type="matrix" values="0 0 0 0 0.745098 0 0 0 0 0.74902 0 0 0 0 0.705882 0 0 0 0.25 0"/>
<feBlend mode="normal" in2="BackgroundImageFix" result="effect1_dropShadow_699_17793"/>
<feBlend mode="normal" in="SourceGraphic" in2="effect1_dropShadow_699_17793" result="shape"/>
</filter>
</defs>
</svg>
