<svg width="99" height="99" viewBox="0 0 99 99" fill="none" xmlns="http://www.w3.org/2000/svg">
<g filter="url(#filter0_d_230_8)">
<rect x="1.5" y="1.35168" width="90.0111" height="90.0111" rx="45.0056" fill="#FFDC58" stroke="black" stroke-width="2"/>
<path fill-rule="evenodd" clip-rule="evenodd" d="M45.2978 73.9171C45.2973 73.9081 45.2899 73.9009 45.2809 73.9007C44.1103 73.8715 42.9123 73.7572 41.7333 73.4268C41.3025 73.3062 40.8623 73.1874 40.4483 72.9872C39.719 72.6403 39.0414 72.1442 38.508 71.5275C38.2388 71.2148 38.0081 70.9014 37.8017 70.5303C37.5854 70.1591 37.4592 69.7283 37.4088 69.2962C37.3578 68.9114 37.3989 68.5154 37.4934 68.1417C37.5959 67.7668 37.7787 67.4255 37.992 67.1134C38.5645 66.3276 39.535 65.857 40.4408 65.9434C40.7249 65.9614 40.6845 66.1081 40.5024 66.3307C40.3078 66.5278 40.0454 66.9294 39.7538 67.1495C39.4735 67.3397 39.3112 67.6263 39.1303 67.8433C38.963 68.0802 38.8555 68.34 38.8076 68.6043C38.7361 68.8641 38.7231 69.1433 38.7784 69.4336C38.8356 69.7227 38.9792 70.0105 39.1744 70.3506C39.4119 70.728 39.7389 71.0562 40.1163 71.3242C40.5005 71.5853 40.9295 71.788 41.3715 71.9652C42.3488 72.3525 43.448 72.5216 44.5583 72.5918C45.244 72.631 45.9403 72.6409 46.6255 72.6018C47.6656 72.5408 48.7144 72.4115 49.6997 72.1063C50.4719 71.8905 51.1868 71.561 51.8688 71.1855C52.0205 71.1041 52.1617 71.0133 52.3096 70.9257C52.8592 70.5999 53.0656 70.5408 53.3155 70.6304C53.3715 70.6503 53.4355 70.6615 53.4803 70.6869C53.6214 70.7566 53.517 71.073 53.1371 71.4336C52.5707 71.9596 51.9093 72.4258 51.1893 72.8001C50.8287 72.9841 50.4582 73.1632 50.0728 73.2999C49.6836 73.4224 49.2869 73.5256 48.8872 73.6064C47.707 73.8552 46.4998 73.9352 45.3151 73.9335C45.3059 73.9335 45.2983 73.9263 45.2978 73.9171Z" fill="#231F20"/>
<path fill-rule="evenodd" clip-rule="evenodd" d="M48.506 74.359C48.5044 74.3545 48.4996 74.3519 48.4949 74.3531C47.8603 74.5211 47.2147 74.6411 46.5672 74.7401C46.3279 74.7725 46.0935 74.8035 45.8535 74.8359C45.008 74.8968 44.1575 74.8782 43.3195 74.7607C42.9464 74.7115 42.5747 74.6456 42.2079 74.5679C41.7428 74.4504 41.2542 74.3311 40.8575 74.0252C40.7313 73.9357 40.8314 73.8206 41.0105 73.7498C41.1939 73.6758 41.4301 73.6578 41.6664 73.733C42.492 74.0426 43.3972 74.1819 44.3254 74.2633C44.8837 74.3056 45.4674 74.244 46.035 74.162C46.6629 74.0905 47.2859 73.9611 47.9032 73.807C48.2837 73.7162 48.6574 73.5912 49.0316 73.4756L49.8746 73.1766C50.15 73.0647 50.4236 72.9459 50.6934 72.8234C51.1062 72.6195 51.4898 72.3783 51.8896 72.1638L52.1476 72.0128C52.4771 71.8343 52.6076 71.8206 52.7357 71.8747C52.7649 71.8878 52.7991 71.8965 52.8215 71.9127C52.8955 71.9643 52.8028 72.1072 52.5883 72.295C51.9561 72.8583 51.1932 73.322 50.3794 73.6845C49.7846 73.9692 49.1558 74.1887 48.517 74.3648C48.5124 74.3661 48.5075 74.3636 48.506 74.359Z" fill="#231F20"/>
<path fill-rule="evenodd" clip-rule="evenodd" d="M49.7375 78.3541C49.7423 78.3579 49.7491 78.3578 49.7537 78.3538C49.9524 78.182 50.1227 77.9401 50.2792 77.6868C50.3401 77.5954 50.3625 77.4791 50.4197 77.3821C50.6149 77.0296 50.7871 76.6485 50.958 76.2544C51.0401 76.0828 51.0998 75.8994 51.1669 75.7166C51.2577 75.4847 51.3161 75.2211 51.5773 75.0315C51.6519 74.9731 51.7377 75.0899 51.816 75.2317C51.8906 75.3815 51.9814 75.5059 51.9577 75.6265C51.8446 76.0157 51.7955 76.5205 51.5151 76.9575C51.3634 77.2236 51.3012 77.5401 51.1657 77.831C51.0221 78.1518 50.8294 78.4608 50.6136 78.7542C50.4582 78.9233 50.3221 79.103 50.1331 79.2435C49.9978 79.3535 49.8526 79.4506 49.6992 79.5334L49.696 79.5351C49.5468 79.6308 49.3789 79.6793 49.2161 79.7409C49.0911 79.7987 48.9661 79.8378 48.8362 79.8739C48.7088 79.9075 48.5745 79.9684 48.4427 79.979C48.3848 79.9864 48.3277 79.9877 48.2686 79.9827C48.0504 79.9553 47.9863 79.8894 47.9702 79.67C47.9658 79.6234 47.959 79.578 47.959 79.5357C47.9596 79.4027 48.0585 79.2354 48.1853 79.1751C48.5738 78.9824 48.8629 78.919 49.1458 78.781C49.3319 78.6585 49.5451 78.5572 49.7196 78.3559C49.7241 78.3506 49.732 78.3498 49.7375 78.3541Z" fill="#231F20"/>
<path fill-rule="evenodd" clip-rule="evenodd" d="M39.9617 67.3981C39.9565 67.3907 39.9469 67.3879 39.9385 67.3913C39.7856 67.4544 39.6067 67.5247 39.4518 67.6446C39.3946 67.69 39.3604 67.7547 39.3032 67.8013C39.0943 67.9648 38.8885 68.1563 38.7368 68.3826C38.6809 68.4821 38.6461 68.5996 38.6529 68.7022C38.6492 68.8483 38.7014 68.9266 38.5932 69.0391C38.5547 69.077 38.3147 69.1896 38.0467 69.2182C37.7881 69.2617 37.4499 69.138 37.4232 68.9664C37.3529 68.6593 37.4132 68.3907 37.5071 68.1669C37.5979 67.9375 37.7384 67.7491 37.9075 67.5899C38.1139 67.4078 38.2053 67.1572 38.3856 66.9639C38.5857 66.7562 38.8071 66.5704 39.0595 66.418C39.2074 66.3192 39.3828 66.252 39.5481 66.1781C39.808 66.0696 40.0923 66.0222 40.3731 66.001C40.3764 66.0007 40.3797 66.0005 40.3831 66.0003C40.4968 65.9984 40.6131 65.971 40.7318 65.9661C40.8481 65.9717 40.9712 65.9779 41.0931 65.9978C41.149 66.0015 41.19 66.032 41.2348 66.0599C41.3902 66.183 41.394 66.2906 41.2827 66.5125C41.2572 66.5635 41.2336 66.6139 41.205 66.6611C41.1092 66.8165 40.9656 66.9272 40.8543 66.9869C40.5087 67.1821 40.4906 67.2393 40.3445 67.2735C40.2534 67.2939 40.1224 67.3339 39.9867 67.4042C39.978 67.4087 39.9673 67.4061 39.9617 67.3981Z" fill="#231F20"/>
<path fill-rule="evenodd" clip-rule="evenodd" d="M29.2842 56.9438C29.2874 56.9401 29.2874 56.9345 29.2841 56.9308C27.7968 55.2055 26.4566 53.337 25.3849 51.3128C25.1778 50.9491 24.9982 50.5711 24.8216 50.1913C24.6345 49.8164 24.466 49.434 24.3224 49.0399C23.2257 46.2982 22.7775 43.3047 22.9963 40.3784C23.0317 39.7281 23.1399 39.0822 23.2183 38.4362C23.3575 37.8009 23.4352 37.1518 23.6186 36.5326C23.9848 34.923 24.6102 33.3228 25.5795 31.9712C25.8841 31.5516 25.9114 31.6597 25.7635 32.0757C25.6093 32.4916 25.3507 33.2444 25.0075 34.0987C24.8558 34.4785 24.7215 34.8658 24.6015 35.2563C24.4803 35.6448 24.3982 36.0539 24.2826 36.448C24.1694 36.8447 24.0675 37.2432 23.9997 37.6498C23.9289 38.0551 23.8219 38.4549 23.779 38.8646C23.5192 40.4922 23.4999 42.1534 23.6584 43.804C23.8468 45.7841 24.4635 47.7915 25.3239 49.6367C26.2596 51.674 27.4582 53.5982 28.8676 55.3632C29.7237 56.458 30.6494 57.5018 31.623 58.4978C33.0908 60.0147 34.6656 61.4446 36.2708 62.7993C37.5198 63.8531 38.7905 64.8285 40.047 65.8531C40.3224 66.0806 40.5996 66.2932 40.8682 66.5351C41.8735 67.4179 42.1452 67.761 42.2447 68.0675C42.2683 68.1366 42.3081 68.2186 42.3137 68.2659C42.3298 68.4275 41.881 68.1167 41.1306 67.5061C38.8894 65.7113 36.4629 63.8524 34.1564 61.8139C32.4476 60.3001 30.7903 58.6988 29.2842 56.9569C29.2809 56.9531 29.2809 56.9476 29.2842 56.9438Z" fill="#231F20"/>
<path fill-rule="evenodd" clip-rule="evenodd" d="M26.308 30.7912C26.3182 30.7957 26.3302 30.7925 26.3368 30.7836C27.3129 29.4825 28.4615 28.3373 29.7143 27.3322C31.0012 26.3636 32.3789 25.5293 33.8343 24.861C36.755 23.5629 39.9431 22.8554 43.1535 22.9561C44.3248 22.9922 45.4936 23.1271 46.6238 23.3515C47.1933 23.464 47.7609 23.5996 48.3235 23.7656C48.8862 23.9285 49.4364 24.1666 49.9897 24.3699C51.907 25.2079 53.6129 26.4985 54.9732 28.0571C56.3397 29.6151 57.3698 31.4292 58.0761 33.3385C59.511 37.1606 59.7864 41.3099 59.2517 45.2738C59.0379 47.04 58.6624 48.7826 58.1986 50.4917C57.7503 52.2076 57.1616 53.875 56.5362 55.5119C55.7298 57.6157 54.7625 59.6586 53.6838 61.6362C52.6139 63.6188 51.3978 65.5181 50.078 67.3303C49.2505 68.4587 49.2095 68.1964 49.677 67.0947C49.9163 66.5483 50.2545 65.7749 50.6866 64.8628C51.1031 63.9415 51.6192 62.8852 52.2085 61.7593C53.2592 59.7643 54.1588 57.7009 55.0198 55.6319C55.8629 53.5542 56.5828 51.4292 57.1261 49.2632C58.2228 44.9424 58.5616 40.4016 57.5172 36.0689C57.1989 34.7814 56.7519 33.5125 56.1625 32.3064C55.5707 31.101 54.8041 29.9807 53.9095 28.9828C53.0118 27.9888 51.9754 27.1109 50.8047 26.4619C49.6359 25.8116 48.3944 25.3136 47.0714 25.0071C41.2834 23.5585 34.8315 25.0649 30.1955 28.8709C28.7786 30.0435 27.5471 31.446 26.6431 33.0394C26.4404 33.4491 26.2228 33.8532 26.0295 34.2667L25.5539 35.5523C25.3164 36.4476 25.069 37.344 24.9484 38.2642L24.862 38.7833L24.8184 39.308L24.7351 40.358L24.742 41.4118L24.7476 41.9384L24.7967 42.4637C24.8806 43.87 25.2051 45.252 25.6043 46.603C26.0121 47.9558 26.6008 49.2483 27.2412 50.5085C27.9114 51.755 28.6711 52.9517 29.4973 54.0988C32.0948 57.6599 35.2928 60.6185 38.5716 63.515C39.2965 64.1535 40.0189 64.7634 40.7407 65.4273C43.4221 67.8613 44.1507 68.93 44.2906 69.7954C44.3211 69.9931 44.354 70.2411 44.3378 70.3537C44.3217 70.4513 44.2608 70.4419 44.1563 70.3543C44.0469 70.266 43.9331 70.095 43.7006 69.875C43.2735 69.4286 42.5635 68.7335 41.5806 67.8712C38.635 65.3428 35.4656 62.7714 32.5666 59.7966C29.6733 56.8324 26.9652 53.4609 25.1852 49.4995C24.5219 48.0347 24.0251 46.4849 23.6807 44.8977C23.3295 43.308 23.2399 41.6636 23.2903 40.0354C23.3506 38.4009 23.6751 36.7957 24.0985 35.2297C24.5896 33.6444 25.336 32.148 26.2787 30.7994C26.2853 30.79 26.2975 30.7866 26.308 30.7912Z" fill="#231F20"/>
<path fill-rule="evenodd" clip-rule="evenodd" d="M42.4002 72.8858C42.3994 72.895 42.4057 72.9034 42.4149 72.9051C43.9949 73.1921 45.6744 73.1437 47.3213 72.8754C47.92 72.7703 48.5268 72.6037 49.1074 72.4763C50.0841 72.2232 51.0794 71.7582 51.9877 71.2192C52.8942 70.6715 53.7397 70.0007 54.3291 69.1856C54.8258 68.4508 54.942 67.5698 54.5013 66.848C54.2271 66.3899 53.767 66.0119 53.2709 65.7016C52.7642 65.4032 52.224 65.1315 51.6495 64.927C51.2927 64.807 51.3462 64.6901 51.7136 64.5857C52.0679 64.5049 52.7972 64.3911 53.5401 64.7225C54.1885 65.0122 54.827 65.4051 55.3443 66.0367C55.4758 66.1883 55.5815 66.362 55.673 66.5462C55.8673 66.9377 55.9909 67.3642 56.0257 67.7999C56.0313 68.0162 55.994 68.2301 55.9716 68.4446C55.8074 69.2851 55.3704 69.9522 54.8967 70.5049C54.4192 71.065 53.8572 71.4871 53.279 71.8682C52.5852 72.3184 51.8659 72.7243 51.113 73.0862C50.7363 73.2664 50.3496 73.4324 49.9486 73.5761C49.7503 73.6513 49.5351 73.706 49.33 73.77L48.7313 73.9006C46.9856 74.2891 45.1758 74.4924 43.3661 74.3401C42.2538 74.2425 41.1472 74.0094 40.0934 73.6015C39.2977 73.2839 38.5473 72.8337 37.887 72.263C37.2361 71.6824 36.704 70.9332 36.441 70.0641C36.2507 69.3908 36.2221 68.6336 36.4515 67.946C36.6878 67.2609 37.1298 66.6709 37.657 66.2183C37.8895 66.0175 38.1251 65.8334 38.3894 65.6793C38.8768 65.3914 39.243 65.3062 39.5003 65.2739C39.7627 65.2534 39.9318 65.3131 40.0835 65.438C40.1525 65.4934 40.2346 65.5425 40.2793 65.6009C40.4298 65.803 40.0798 66.0939 39.5035 66.4576C38.6449 66.9861 37.9231 67.7178 37.726 68.4987C37.6067 68.8878 37.6284 69.272 37.7198 69.678C37.8305 70.084 38.0686 70.48 38.3595 70.8493C39.282 71.9391 40.8102 72.5948 42.3854 72.8664C42.3947 72.868 42.4011 72.8764 42.4002 72.8858Z" fill="#231F20"/>
<path fill-rule="evenodd" clip-rule="evenodd" d="M40.7435 69.9457C40.7408 69.9537 40.7446 69.9625 40.7524 69.9657C41.6279 70.3305 42.6008 70.5692 43.5959 70.6861C43.9615 70.7308 44.3314 70.7246 44.7 70.7389C46.0019 70.7961 47.3329 70.6997 48.608 70.3746C49.1719 70.2291 49.7265 70.0295 50.2344 69.7684C50.8878 69.4265 51.4566 68.9851 51.9615 68.4946C52.1219 68.3423 52.2412 68.4293 52.2636 68.6991C52.2997 68.9733 52.1865 69.4501 51.8147 69.7883C50.4955 70.9366 48.8629 71.4719 47.2378 71.631C46.2642 71.7237 45.2602 71.8729 44.2586 71.8443C43.1613 71.8113 42.0578 71.6683 40.9954 71.3258C40.3432 71.1157 39.7053 70.8346 39.1166 70.4554C38.6733 70.1651 38.2593 69.8126 37.9186 69.3886C37.7594 69.1679 37.5996 68.9478 37.4809 68.701C37.3448 68.4797 37.2453 68.1272 37.2515 67.8275C37.2583 67.3407 37.4442 66.9086 37.6823 66.548C37.9242 66.1862 38.2276 65.8803 38.5776 65.6317C38.7293 65.5185 38.8872 65.4184 39.0613 65.3333C39.7252 65.0379 40.0286 65.1523 40.1778 65.4147C40.2133 65.4756 40.2549 65.5341 40.2723 65.5937C40.3189 65.7958 40.1038 65.9804 39.7843 66.1564C39.2969 66.4131 38.8381 66.8334 38.5888 67.2686C38.4638 67.4837 38.4091 67.6938 38.4215 67.8325C38.4234 67.9046 38.4452 67.9599 38.4731 68.0184C38.5067 68.0905 38.6 68.2403 38.6565 68.3497C39.0913 69.0287 39.8526 69.5711 40.7344 69.9256C40.7423 69.9288 40.7463 69.9377 40.7435 69.9457Z" fill="#231F20"/>
<path fill-rule="evenodd" clip-rule="evenodd" d="M44.3178 75.634C44.3166 75.6434 44.3227 75.6521 44.3319 75.6543C45.1474 75.8436 46.0337 75.8719 46.9175 75.7922C47.2439 75.7699 47.5609 75.6791 47.8855 75.6256C49.0337 75.4385 50.1683 75.081 51.2538 74.6054C51.73 74.3841 52.1857 74.1124 52.5986 73.8034C53.1438 73.4136 53.5777 72.9306 54.026 72.4817C54.177 72.3462 54.3119 72.4295 54.376 72.6875C54.4058 72.8149 54.4313 73.0014 54.3934 73.1954C54.3486 73.3751 54.2622 73.5734 54.1242 73.7512C53.0891 74.9051 51.8009 75.7319 50.3741 76.1677C49.5193 76.4127 48.6682 76.7689 47.7667 76.925C46.7826 77.1034 45.7692 77.1662 44.7577 77.0648C44.1373 76.9989 43.5125 76.8516 42.9274 76.6433C42.0403 76.3176 41.2022 75.8177 40.5072 75.1662C39.9644 74.6676 39.4652 74.1068 39.1065 73.4484C39.0331 73.3017 38.961 73.1575 38.8995 73.0039C38.7198 72.4177 38.8224 72.1932 39.0686 72.0117C39.1251 71.97 39.1761 71.9215 39.2302 71.8942C39.4037 71.8028 39.6673 71.9775 39.896 72.2964C40.2324 72.772 40.5252 73.2203 40.8591 73.6312C41.1941 74.0409 41.5889 74.394 42.0365 74.6931C42.6897 75.1314 43.4992 75.4526 44.3032 75.6136C44.3127 75.6155 44.3191 75.6244 44.3178 75.634Z" fill="#231F20"/>
<path fill-rule="evenodd" clip-rule="evenodd" d="M40.8784 37.4952C40.8868 37.4926 40.8922 37.4847 40.8916 37.476C40.8702 37.1692 40.8687 36.8546 40.8858 36.5328L40.9225 36.0286L40.9828 35.6649C41.0176 35.5337 41.0649 35.4069 41.1053 35.2776C41.2781 34.7579 41.6822 34.4197 42.1609 34.3208C42.6446 34.2251 43.1488 34.3911 43.5368 34.7442C43.6306 34.8356 43.7289 34.9295 43.8066 35.0333C43.893 35.1377 43.9751 35.2391 44.0105 35.3068C44.1093 35.461 44.1877 35.6127 44.2623 35.7644C44.4102 36.0665 44.524 36.3649 44.626 36.6621C44.8181 37.2614 44.9791 37.8831 45.0518 38.4999C45.3583 40.9674 44.9872 43.4554 43.9073 45.6904C43.709 46.0976 43.4771 46.4918 43.2209 46.8735C43.091 47.0656 42.9169 47.2596 42.764 47.4498C42.5818 47.6245 42.3966 47.8029 42.1883 47.9534C41.3372 48.5701 40.197 48.7324 39.2626 48.511C38.4227 48.3388 37.6779 47.9826 37.0021 47.5574C36.3251 47.1271 35.7164 46.6267 35.1656 46.0448C34.6061 45.4442 34.1715 44.7852 33.806 44.0852C33.4448 43.3845 33.1476 42.6441 32.9984 41.8427C32.8517 41.0519 32.8249 40.1635 33.2122 39.341C33.3956 38.9413 33.648 38.5832 34.0148 38.281C34.3742 37.9783 34.8765 37.8029 35.3534 37.8179C36.3207 37.8502 37.0494 38.4327 37.5989 38.9643C38.1665 39.517 38.6359 40.1436 39.0462 40.7945C40.4967 43.116 41.3074 45.7196 42.077 48.2195C42.58 49.834 43.0214 51.4921 43.3024 53.1856C43.4342 54.0336 43.5355 54.889 43.5616 55.7482C43.5877 56.608 43.5436 57.4666 43.4628 58.3171C43.3335 59.3777 43.1768 59.208 43.012 58.3158C42.9213 57.8396 42.8019 57.2216 42.6645 56.5042C42.5004 55.7638 42.3356 54.9108 42.1783 53.982C41.8973 52.3345 41.428 50.7218 40.925 49.0979C40.4351 47.4554 39.9458 45.8234 39.3515 44.2692C38.7559 42.7193 38.0316 41.1993 36.9878 40.0205C36.7304 39.7277 36.4395 39.4492 36.1665 39.2614C35.883 39.0743 35.5803 38.9587 35.3235 38.9593C35.0661 38.9524 34.8417 39.0445 34.6241 39.2546C34.4065 39.466 34.2219 39.7824 34.1286 40.0889C33.8868 40.8654 34.0733 41.862 34.4401 42.7597C34.805 43.6649 35.3509 44.5483 36.0155 45.2434C36.7105 45.9472 37.5467 46.5527 38.4326 46.9543C39.3142 47.336 40.2878 47.5176 41.0493 47.1613C41.4702 46.9786 41.8321 46.6565 42.1311 46.2524C42.4351 45.8129 42.7037 45.3342 42.9262 44.8318C43.359 43.821 43.6474 42.7305 43.7699 41.6226C43.9036 40.5148 43.8756 39.3876 43.6797 38.304C43.5691 37.7675 43.423 37.2384 43.216 36.7324C43.1134 36.4831 42.9971 36.2443 42.8659 36.0392C42.7571 35.8682 42.7018 35.8029 42.5744 35.7302C42.4239 35.645 42.2349 35.7352 42.1752 35.8912C42.1423 35.9646 42.1143 36.0479 42.1025 36.1231C42.0751 36.2474 42.0447 36.4284 42.0391 36.5869C42.0068 37.2496 42.082 37.9465 42.2113 38.6254C42.3425 39.305 42.5302 39.9789 42.7926 40.6105C43.0487 41.226 43.3975 41.8713 43.8433 42.1797C44.2119 42.4054 44.667 42.516 45.1041 42.4333C45.5467 42.3587 45.9813 42.1212 46.3624 41.8085C47.1202 41.1763 47.7276 40.2729 48.0186 39.3342C48.1622 38.8897 48.1665 38.3786 48.1025 37.8943C48.0329 37.4175 47.8588 36.9431 47.5734 36.7C47.2781 36.4551 46.9834 36.4582 46.672 36.7523C46.3586 37.0525 46.1031 37.5064 45.9104 37.9702C45.7512 38.3326 45.6586 38.7019 45.5672 39.1097C45.4646 39.5045 45.3963 39.9074 45.3304 40.3096C45.2116 41.1153 45.1401 41.9266 45.1227 42.7386C45.086 44.3625 45.2091 45.9851 45.4907 47.5847C45.6151 48.2897 45.7699 48.9723 45.9458 49.6699C46.2666 50.9655 46.5433 51.7979 46.6925 52.4004C46.8492 53.0003 46.874 53.3746 46.8286 53.7103C46.8075 53.8632 46.805 54.0566 46.7665 54.1592C46.667 54.4998 45.8973 53.5996 45.2073 51.6587C44.2082 48.7864 43.7083 45.6425 43.8451 42.4402C43.888 41.6407 43.9632 40.8368 44.0975 40.0361C44.1728 39.6376 44.2175 39.2322 44.3139 38.8337L44.4457 38.2263C44.5041 37.9969 44.5725 37.7905 44.6483 37.5797C44.8044 37.1626 44.989 36.7523 45.2601 36.3376C45.5312 35.9422 45.893 35.4554 46.6807 35.1937C47.0562 35.1085 47.474 35.1004 47.8277 35.2726C48.2013 35.3951 48.4674 35.6239 48.6844 35.8645C49.1146 36.3581 49.2756 36.876 49.3869 37.3584C49.5243 38.0864 49.5417 38.7535 49.3571 39.5238C49.1631 40.2251 48.8554 40.8219 48.4824 41.3783C48.1056 41.9304 47.6574 42.4371 47.1022 42.866C46.5501 43.2869 45.8613 43.6475 45.0469 43.7122C44.8485 43.7414 44.6384 43.7059 44.4364 43.6966C44.2343 43.6711 44.0385 43.6071 43.842 43.5561C43.658 43.4815 43.4808 43.3932 43.3036 43.3062C43.1053 43.1899 42.9337 43.0488 42.7901 42.9083C42.243 42.337 41.962 41.742 41.7115 41.1501C41.2433 39.9649 40.9633 38.7717 40.8652 37.5145C40.8646 37.5058 40.87 37.4977 40.8784 37.4952Z" fill="#231F20"/>
<path fill-rule="evenodd" clip-rule="evenodd" d="M65.5222 38.9925C65.5079 39.1013 65.3643 39.0535 65.1411 38.9217C65.0697 38.88 64.9012 38.7066 64.8956 38.6637C64.8844 38.5803 64.8751 38.4977 64.88 38.4268C64.88 38.3839 65.1623 37.9332 65.2624 37.7746C65.3556 37.6198 65.4781 37.4949 65.6111 37.383C65.8754 37.148 66.1582 36.9297 66.4573 36.7308C66.5238 36.6873 66.5984 36.6562 66.678 36.6357C66.9553 36.5704 67.194 36.4479 67.4302 36.3049C67.47 36.2819 67.516 36.2701 67.5384 36.2104C67.5676 36.1023 68.2782 35.8206 68.3864 35.8337C68.6457 35.8443 68.8931 35.8312 69.1449 35.8629C69.1803 35.8673 69.2133 35.8418 69.2537 35.8915C69.3463 36.0059 69.4134 35.9748 69.4874 35.9748C69.5888 35.9723 69.692 35.9841 69.7952 36.0177C69.8461 36.0339 69.9002 36.1004 69.9512 36.1526C69.9972 36.1992 69.9854 36.3858 69.973 36.4069C69.9357 36.4684 69.9755 36.5524 69.9842 36.6288C69.9906 36.6819 69.9762 36.7319 69.9383 36.7697C69.8987 36.8091 69.8409 36.8623 69.7799 36.9164C69.6034 37.0731 69.3677 37.2006 69.148 37.2866C68.9751 37.355 68.8005 37.437 68.7675 37.4625C68.6949 37.5118 68.5976 37.4793 68.5212 37.5224C68.4864 37.5419 68.4469 37.5649 68.4064 37.5887C68.2131 37.7025 68.0177 37.894 67.7983 37.8479C67.789 37.846 67.7795 37.8435 67.7697 37.8405C67.7392 37.8324 67.7212 37.8492 67.7013 37.8617C67.5303 37.9686 67.3345 38.0326 67.1449 38.1172C67.0498 38.1626 66.9683 38.2297 66.8807 38.2875C66.8645 38.2981 66.8402 38.2962 66.8203 38.3012C66.7955 38.3074 66.7675 38.3093 66.7482 38.3242C66.5456 38.4697 66.3062 38.576 66.1359 38.7681C66.0948 38.8079 65.8026 38.9005 65.761 38.9571C65.7367 38.9863 65.5278 38.9478 65.5222 38.9925Z" fill="#231F20"/>
<path fill-rule="evenodd" clip-rule="evenodd" d="M59.5318 25.1401C59.5168 25.252 59.3645 25.201 59.132 25.0667C59.058 25.0238 58.8827 24.846 58.8759 24.8019C58.8628 24.7148 58.8516 24.6284 58.8541 24.5538C58.8541 24.509 59.1245 24.0266 59.2153 23.8519C59.3011 23.6834 59.418 23.5466 59.5448 23.4223C59.8041 23.1705 60.0807 22.9399 60.3555 22.7185C60.4171 22.6701 60.4879 22.6328 60.5663 22.6104C60.8348 22.5308 61.0499 22.3816 61.2439 22.2069C61.2762 22.1777 61.3173 22.1596 61.3216 22.0931C61.3328 21.9837 61.8855 21.574 61.975 21.5535C62.2075 21.505 62.4164 21.4229 62.6365 21.3533C62.6688 21.3452 62.6844 21.3104 62.7453 21.344C62.8871 21.4223 62.9275 21.3633 62.9896 21.3334C63.0761 21.2911 63.165 21.2526 63.27 21.2333C63.3222 21.2234 63.4087 21.2582 63.4851 21.2793C63.5548 21.2986 63.6673 21.4733 63.6698 21.5006C63.6766 21.5784 63.7661 21.6331 63.8233 21.6977C63.8426 21.7195 63.8681 21.7481 63.8811 21.7674C64.1748 22.161 63.4444 22.7146 63.0868 23.0512C63.024 23.1103 62.9771 23.1557 62.9623 23.1736C62.93 23.2128 62.869 23.2128 62.8168 23.2234C62.7919 23.2308 62.3095 23.6872 62.2877 23.6959C62.1659 23.7562 62.0844 23.8718 61.9054 23.8438C61.87 23.8382 61.8513 23.8581 61.8308 23.8749C61.6542 24.016 61.4429 24.1031 61.2427 24.2056C61.142 24.2585 61.0605 24.3381 60.9685 24.4021C60.9517 24.4145 60.925 24.4121 60.9045 24.4183C60.8777 24.4257 60.8473 24.4276 60.8274 24.4444C60.6272 24.6185 60.363 24.7142 60.1864 24.9162C60.1429 24.9573 59.8289 25.0474 59.7854 25.1059C59.7593 25.1357 59.538 25.0941 59.5318 25.1401Z" fill="#231F20"/>
<path fill-rule="evenodd" clip-rule="evenodd" d="M51.4808 78.2691C51.4744 78.2655 51.4663 78.2673 51.4621 78.2733C51.1348 78.7392 50.7463 79.2086 50.2305 79.5745C50.0346 79.6995 49.8512 79.8493 49.6249 79.9277C49.2364 80.0887 48.7794 80.1297 48.3834 80.0669C47.9818 80.006 47.6181 79.8692 47.2923 79.6927C47.0026 79.5372 46.7229 79.3775 46.4568 79.2052C46.2883 79.0921 46.1155 78.9833 45.9594 78.8546C45.8096 78.7178 45.6834 78.5549 45.5783 78.3765C45.5143 78.2634 45.6324 78.1714 45.8227 78.1179C46.2501 78.0043 46.6546 78.2524 47.0307 78.4851C47.4484 78.7435 47.8668 78.9606 48.2833 79.1213C48.665 79.2587 49.0238 79.1536 49.3732 78.9603C49.7543 78.7539 50.0931 78.4113 50.3853 78.0054C50.5687 77.7586 50.7322 77.4838 50.8889 77.2046C51.1208 76.7757 51.3551 76.333 51.5578 75.8754C51.712 75.5192 51.8171 75.1375 51.9855 74.7738C52.0235 74.6936 52.0521 74.6097 52.0962 74.5319C52.2777 74.2522 52.4238 74.2186 52.6856 74.3262C52.7421 74.3485 52.7975 74.3641 52.8422 74.3865C52.9778 74.4511 53.1065 74.7017 53.0542 74.9186C52.9075 75.5696 52.6358 76.1776 52.3107 76.821C52.075 77.2948 51.8094 77.7783 51.4998 78.2644C51.4957 78.2708 51.4874 78.2729 51.4808 78.2691Z" fill="#231F20"/>
<path fill-rule="evenodd" clip-rule="evenodd" d="M43.0798 18.0919C43.1488 18.1895 43.0139 18.2784 42.7708 18.3599C42.6931 18.386 42.4562 18.3897 42.4195 18.363C42.3499 18.3108 42.2796 18.2585 42.228 18.2051C42.2001 18.1709 42.0098 17.6462 41.9184 17.474C41.8357 17.3055 41.7922 17.1357 41.7562 16.9654C41.6841 16.6197 41.5777 16.2809 41.5174 15.9377C41.5019 15.8619 41.5038 15.7836 41.5174 15.7034C41.5678 15.4267 41.5205 15.1625 41.4316 14.9063C41.4167 14.8634 41.4155 14.8168 41.3533 14.7851C41.3292 14.7736 41.3016 14.7287 41.274 14.6649C41.071 14.1959 41.1699 13.6683 41.2346 13.1612C41.2389 13.1252 41.2122 13.0941 41.2657 13.0493C41.39 12.9443 41.3458 12.879 41.3546 12.8C41.3565 12.7724 41.3582 12.7447 41.3604 12.7169C41.3734 12.5499 41.4609 12.4071 41.561 12.2728C41.6045 12.2144 41.7307 12.2082 41.7543 12.2187C41.8121 12.2523 41.8712 12.1982 41.9246 12.1802C41.9433 12.174 41.9675 12.1659 41.985 12.164C42.0138 12.1586 42.1642 12.2551 42.3163 12.3675C42.5685 12.554 42.7306 12.8386 42.8566 13.1258C42.9536 13.3465 43.0592 13.5778 43.0866 13.6238C43.1445 13.7179 43.1068 13.8411 43.1421 13.9458C43.2134 14.1575 43.3314 14.5082 43.3309 14.5302C43.3378 14.6807 43.413 14.8218 43.3054 14.9915C43.2849 15.0251 43.2961 15.0537 43.303 15.0835C43.3577 15.3359 43.339 15.6008 43.3347 15.8606C43.3322 15.9937 43.362 16.123 43.3626 16.2554C43.3633 16.2791 43.3452 16.3045 43.3378 16.3294C43.3284 16.3605 43.3129 16.3922 43.3148 16.422C43.3365 16.7323 43.2768 17.0481 43.3235 17.354C43.3334 17.4248 43.2016 17.7711 43.2184 17.8507C43.2265 17.8967 43.0505 18.0534 43.0798 18.0919Z" fill="#231F20"/>
<path fill-rule="evenodd" clip-rule="evenodd" d="M22.9505 19.1829C22.8181 19.1655 22.8858 18.9883 23.0798 18.7291C23.1414 18.6464 23.3782 18.4499 23.4292 18.4412C23.528 18.4232 23.6244 18.4064 23.7027 18.4045C23.7487 18.4083 24.2007 18.6482 24.3729 18.6992C24.5333 18.7577 24.6639 18.8459 24.7895 18.9423L25.5883 19.5C25.648 19.5416 25.6978 19.597 25.7425 19.6629C25.8917 19.8929 26.1056 20.039 26.3412 20.1521C26.3804 20.1708 26.4133 20.2025 26.4768 20.1795C26.5768 20.1434 27.1886 20.5071 27.2508 20.5904C27.3987 20.7956 27.5697 20.9684 27.7326 21.1568C27.7562 21.1835 27.7979 21.1848 27.7929 21.2544C27.7811 21.4154 27.8557 21.4316 27.9135 21.4776C27.9931 21.5422 28.0695 21.6144 28.1317 21.7082C28.1628 21.7542 28.1628 21.8506 28.1709 21.9327C28.179 22.0073 28.0459 22.1813 28.0204 22.1938C27.9458 22.2292 27.9247 22.3362 27.8818 22.4163C27.8675 22.4431 27.8482 22.4779 27.8339 22.4984C27.801 22.5419 27.1159 22.5749 27.0624 22.5419C27.0562 22.5388 26.8566 22.458 26.644 22.3703C26.4314 22.2852 26.2076 22.1969 26.1578 22.1838C26.1062 22.1708 26.0795 22.1154 26.0459 22.0713C26.0316 22.0551 25.3701 21.8002 25.3471 21.7797C25.2315 21.6908 25.0761 21.6573 25.0232 21.4707C25.0133 21.4341 24.9841 21.4235 24.9586 21.4104C24.7335 21.2898 24.5501 21.1058 24.3617 20.9305C24.2641 20.8422 24.1485 20.7763 24.0434 20.6967C24.0248 20.6824 24.0179 20.6526 24.0043 20.6315C23.9869 20.6053 23.9757 20.5699 23.952 20.5525C23.7034 20.3616 23.515 20.1018 23.2533 19.9196C23.1892 19.8792 23.0562 19.5217 22.9872 19.4751C22.9455 19.4484 23.0021 19.1897 22.9505 19.1829Z" fill="#231F20"/>
</g>
<defs>
<filter id="filter0_d_230_8" x="0.5" y="0.351685" width="98.0112" height="98.0111" filterUnits="userSpaceOnUse" color-interpolation-filters="sRGB">
<feFlood flood-opacity="0" result="BackgroundImageFix"/>
<feColorMatrix in="SourceAlpha" type="matrix" values="0 0 0 0 0 0 0 0 0 0 0 0 0 0 0 0 0 0 127 0" result="hardAlpha"/>
<feOffset dx="6" dy="6"/>
<feComposite in2="hardAlpha" operator="out"/>
<feColorMatrix type="matrix" values="0 0 0 0 0 0 0 0 0 0 0 0 0 0 0 0 0 0 1 0"/>
<feBlend mode="normal" in2="BackgroundImageFix" result="effect1_dropShadow_230_8"/>
<feBlend mode="normal" in="SourceGraphic" in2="effect1_dropShadow_230_8" result="shape"/>
</filter>
</defs>
</svg>
