<svg width="78" height="90" viewBox="0 0 78 90" fill="none" xmlns="http://www.w3.org/2000/svg">
<path d="M60.8123 14.6694C60.2245 13.7694 54.9704 13.0131 48.9493 12.8367C39.585 12.5918 38.0036 12.9529 37.4489 14.8558C35.8623 19.625 38.0631 20.6963 49.0088 20.5801C60.8783 20.2754 63.8684 18.8956 60.8123 14.6694Z" fill="black"/>
<path d="M43.3304 43.4147C31.7928 35.8191 28.2531 34.6938 28.5063 38.9529C28.6091 40.6832 32.5494 44.0554 40.3352 49.2026C46.8676 53.4893 52.5462 56.8917 53.2117 56.8521C53.7441 56.8205 54.1894 55.3248 54.0866 53.5945C53.9442 51.1987 51.2572 48.687 43.3304 43.4147Z" fill="black"/>
<path d="M29.0194 66.7433C22.9612 56.9521 15.7763 48.43 14.3676 49.4487C11.9336 51.1962 13.3767 55.2511 19.6062 63.4292C22.9523 68.0389 26.5803 72.8989 27.6069 74.4407C28.6335 75.9825 29.9105 77.2423 30.576 77.2027C33.3711 77.0366 32.7107 72.6681 29.0194 66.7433Z" fill="black"/>
</svg>
