<svg width="206" height="220" viewBox="0 0 206 220" fill="none" xmlns="http://www.w3.org/2000/svg">
<g filter="url(#filter0_d_1_922)">
<rect width="143.482" height="149.353" transform="translate(122.859 0.121704) rotate(55.0113)" fill="#F3ABCB"/>
<g filter="url(#filter1_d_1_922)">
<path d="M156.426 51.0766C154.362 51.7058 154.401 51.6784 136.974 67.1379C129.914 73.3607 123.94 78.4735 123.741 78.4383C123.542 78.4031 123.065 74.3103 122.741 69.3535C122.077 59.9169 121.143 54.3386 120.033 52.6694C118.719 50.7929 117.101 50.6443 114.951 52.1492C112.684 53.7361 111.261 55.7805 104.528 67.1321C99.0083 76.4706 97.5814 78.343 96.225 78.0693C94.4698 77.7252 91.4717 75.1059 76.7509 61.0636C68.7416 53.4483 61.389 46.7711 60.3844 46.2511C57.1126 44.4059 55.3573 46.974 56.6196 51.8566C56.9948 53.2248 59.5549 59.8782 62.3026 66.6332C69.9399 85.2839 73.7857 97.2694 72.4175 98.227C72.1047 98.4459 69.4661 98.2542 66.4913 97.8319C55.8001 96.2872 48.7833 95.6652 47.5363 96.1303C46.5785 96.5095 46.2697 96.9004 46.1875 97.948C46.0936 99.0621 46.3125 99.3748 47.8096 100.598C48.7791 101.318 54.49 104.484 60.4903 107.565C66.4906 110.646 71.799 113.57 72.2993 114.035C73.812 115.365 73.5149 116.271 71.1224 118.179C69.9262 119.133 63.7339 123.933 57.3462 128.87C42.4128 140.486 40.3174 142.652 41.877 144.88C43.6829 147.46 49.0775 146.597 70.5348 140.14C79.6861 137.404 87.5787 135.2 88.0439 135.282C88.7475 135.372 88.7866 135.927 88.2665 138.097C86.898 143.714 84.3836 158.346 84.5477 159.745C84.9658 163.005 86.9907 163.568 89.6099 161.153C90.3996 160.367 94.4966 155.403 98.7696 150.024C103.003 144.673 106.557 140.263 106.69 140.287C106.823 140.31 107.905 143.105 109.066 146.428C111.908 154.399 117.231 166.748 119.694 170.849C121.457 173.867 121.742 174.191 122.95 174.336C125.737 174.657 126.077 173.312 128.994 152.516C130.054 144.96 131.196 138.686 131.485 138.6C131.775 138.514 134.753 139.69 138.045 141.231C146.312 145.054 151.687 146.825 153.915 146.431C155.682 146.126 155.76 146.071 155.995 144.742C156.363 142.854 153.451 137.612 148.772 131.509C146.767 128.894 145.125 126.549 145.199 126.322C145.207 126.083 148.842 126.451 153.201 127.186C165.862 129.216 177.339 130.385 180.916 129.92C183.715 129.592 184.853 127.806 183.512 125.89C182.938 125.069 173.689 120.01 160.496 113.227C155.219 110.514 150.904 108.176 150.872 107.965C150.841 107.754 154.918 104.842 159.887 101.539C170.188 94.6207 171.767 93.0493 170.704 91.1142C169.93 89.6757 169.309 89.703 157.441 91.1369C147.21 92.4146 143.419 92.7389 143.118 92.3088C143.008 92.1525 143.634 90.5498 144.517 88.65C145.389 86.8167 147.359 82.6419 148.927 79.3896C153.779 69.1794 158.326 58.3671 159.002 55.5057C159.538 53.4417 159.503 52.4762 158.928 51.6553C158.272 50.717 157.873 50.6466 156.426 51.0766ZM155.226 58.2653C153.236 63.3275 147.008 77.0636 143.45 84.2131C140.448 90.1587 139.533 93.0123 140.326 94.1459C141.257 95.4751 145.877 95.5027 155.392 94.2015C160.685 93.5256 165.517 92.9395 166.126 92.9786C167.08 93.0099 167.096 93.1155 165.9 94.0692C165.184 94.6282 160.638 97.8686 155.818 101.3L147.022 107.457L147.643 108.594C148.112 109.431 152.619 112.042 163.94 117.981C172.567 122.485 179.763 126.359 179.927 126.594C180.092 126.828 180.111 127.106 179.955 127.215C179.212 127.735 161.348 125.678 152.138 124.086C146.556 123.101 141.802 122.467 141.49 122.686C140.16 123.617 140.618 124.52 147.185 133.902C150.769 139.023 153.595 143.393 153.482 143.647C153.044 144.769 147.133 142.732 137.978 138.307C132.49 135.625 130.563 135.285 129.222 136.864C128.628 137.513 127.553 143.216 125.918 154.028C124.624 162.914 123.388 170.302 123.192 170.439C122.293 171.068 119.577 165.106 113.796 150.107C108.226 135.659 108.144 135.541 105.564 137.347C104.861 137.84 102.14 141.025 99.5556 144.407C93.0387 152.987 87.894 159.034 87.5656 158.565C87.1552 157.978 88.2619 151.321 90.1778 142.991C92.1797 134.368 92.2189 133.175 90.8664 132.491C89.3536 131.745 86.8244 132.292 73.0212 136.536C54.2221 142.297 45.5985 144.372 44.805 143.239C44.2851 142.496 47.5455 139.748 63.5226 127.459C70.5358 122.084 75.356 118.07 75.7899 117.358C77.5492 114.38 74.8247 111.569 65.7324 106.983C55.9835 102.041 51.3592 99.5119 51.4295 99.1132C51.4726 98.6754 53.9001 98.8983 63.5555 100.294C71.9482 101.468 74.2897 101.401 75.0247 99.955C76.6706 96.648 73.9895 87.5749 64.2104 63.2012C60.3253 53.5729 59.0903 49.8943 59.5985 49.5386C60.0285 49.2377 60.1106 49.3549 74.804 63.3581C89.2278 77.1424 91.6864 79.3238 94.2859 80.7078C98.1714 82.7642 99.7273 81.3257 107.519 68.2425C113.485 58.1261 115.83 54.737 116.937 54.4869C118.16 54.1547 118.871 58.0834 119.742 70.229C120.488 80.9477 120.868 83.0704 121.911 82.9805C122.15 82.9884 123.19 82.1441 124.226 81.1278C127.814 77.6841 154.284 55.2552 155.969 54.2507C156.845 53.7543 156.762 54.2195 155.226 58.2653Z" fill="black"/>
</g>
<g filter="url(#filter2_d_1_922)">
<path d="M129.319 93.813C123.878 89.1179 114.485 85.8494 107.077 86.0835C103.348 86.2475 97.7969 87.803 94.0832 89.8198C83.6065 95.4053 81.7332 109.705 90.2037 119.56C98.8226 129.544 115.373 133.802 125.436 128.623C133.508 124.429 138.36 115.384 137.027 106.823C136.562 103.829 136.172 102.937 133.963 99.5323C132.345 97.0539 130.656 94.9741 129.319 93.813ZM133.834 107.253C134.361 110.669 133.454 115.614 131.636 118.925C130.248 121.353 129.744 121.88 126.03 124.48C122.277 127.106 121.648 127.372 118.786 127.861C115.159 128.419 108.451 127.407 103.842 125.565C87.6784 119.114 82.4647 101.679 94.1924 93.4709C99.2744 89.914 107.792 87.8544 113.242 88.8163C116.127 89.3598 123.425 93.0465 126.391 95.4547C129.562 98.0701 133.337 104.047 133.834 107.253Z" fill="black"/>
</g>
<path d="M120.033 108.175C119.24 107.623 117.602 108.944 117.719 110.027C117.95 112.021 120.717 112.064 121.069 110.07C121.222 109.207 120.96 108.749 120.033 108.175Z" fill="black"/>
<path d="M105.559 99.7263C104.163 100.062 103.592 101.161 104.214 102.298C104.906 103.62 106.661 103.381 107.052 101.943C107.357 100.797 106.454 99.5074 105.559 99.7263Z" fill="black"/>
<path d="M108.115 116.109C105.66 118.177 105.058 118.482 103.839 118.403C102.619 118.325 102.349 118.106 102.06 117.027C101.794 115.816 102.267 113.329 103.163 111.363C103.503 110.601 103.421 110.484 102.678 110.421C101.365 110.292 99.6287 113.72 99.7615 116.073C99.9684 119.947 103.014 121.718 106.563 120.049C108.252 119.217 110.852 116.524 111.258 115.191C111.712 113.592 110.844 113.85 108.115 116.109Z" fill="black"/>
</g>
<defs>
<filter id="filter0_d_1_922" x="0.5" y="0.121704" width="204.634" height="219.191" filterUnits="userSpaceOnUse" color-interpolation-filters="sRGB">
<feFlood flood-opacity="0" result="BackgroundImageFix"/>
<feColorMatrix in="SourceAlpha" type="matrix" values="0 0 0 0 0 0 0 0 0 0 0 0 0 0 0 0 0 0 127 0" result="hardAlpha"/>
<feOffset dy="16"/>
<feComposite in2="hardAlpha" operator="out"/>
<feColorMatrix type="matrix" values="0 0 0 0 0 0 0 0 0 0 0 0 0 0 0 0 0 0 0.25 0"/>
<feBlend mode="normal" in2="BackgroundImageFix" result="effect1_dropShadow_1_922"/>
<feBlend mode="normal" in="SourceGraphic" in2="effect1_dropShadow_1_922" result="shape"/>
</filter>
<filter id="filter1_d_1_922" x="41.4432" y="45.6517" width="142.63" height="132.721" filterUnits="userSpaceOnUse" color-interpolation-filters="sRGB">
<feFlood flood-opacity="0" result="BackgroundImageFix"/>
<feColorMatrix in="SourceAlpha" type="matrix" values="0 0 0 0 0 0 0 0 0 0 0 0 0 0 0 0 0 0 127 0" result="hardAlpha"/>
<feOffset dy="4"/>
<feComposite in2="hardAlpha" operator="out"/>
<feColorMatrix type="matrix" values="0 0 0 0 0 0 0 0 0 0 0 0 0 0 0 0 0 0 0.25 0"/>
<feBlend mode="normal" in2="BackgroundImageFix" result="effect1_dropShadow_1_922"/>
<feBlend mode="normal" in="SourceGraphic" in2="effect1_dropShadow_1_922" result="shape"/>
</filter>
<filter id="filter2_d_1_922" x="84.8752" y="86.0717" width="52.3713" height="48.7668" filterUnits="userSpaceOnUse" color-interpolation-filters="sRGB">
<feFlood flood-opacity="0" result="BackgroundImageFix"/>
<feColorMatrix in="SourceAlpha" type="matrix" values="0 0 0 0 0 0 0 0 0 0 0 0 0 0 0 0 0 0 127 0" result="hardAlpha"/>
<feOffset dy="4"/>
<feComposite in2="hardAlpha" operator="out"/>
<feColorMatrix type="matrix" values="0 0 0 0 0 0 0 0 0 0 0 0 0 0 0 0 0 0 0.25 0"/>
<feBlend mode="normal" in2="BackgroundImageFix" result="effect1_dropShadow_1_922"/>
<feBlend mode="normal" in="SourceGraphic" in2="effect1_dropShadow_1_922" result="shape"/>
</filter>
</defs>
</svg>
