<svg width="161" height="173" viewBox="0 0 161 173" xmlns="http://www.w3.org/2000/svg">
  <defs>
    <filter id="filter1_d" x="32.1956" y="35.8022" width="112.156" height="104.364" filterUnits="userSpaceOnUse" color-interpolation-filters="sRGB">
      <feFlood flood-opacity="0" result="BackgroundImageFix"/>
      <feColorMatrix in="SourceAlpha" type="matrix" 
         values="0 0 0 0 0 0 0 0 0 0 0 0 0 0 0 0 0 0 127 0" 
         result="hardAlpha"/>
      <feOffset dy="3.14537"/>
      <feComposite in2="hardAlpha" operator="out"/>
      <feColorMatrix type="matrix" 
         values="0 0 0 0 0 0 0 0 0 0 0 0 0 0 0 0 0 0 0.25 0"/>
      <feBlend mode="normal" in2="BackgroundImageFix" result="effect1_dropShadow"/>
      <feBlend mode="normal" in="SourceGraphic" in2="effect1_dropShadow" result="shape"/>
    </filter>
    <filter id="filter2_d" x="66.3479" y="67.5861" width="41.1816" height="38.3473" filterUnits="userSpaceOnUse" color-interpolation-filters="sRGB">
      <feFlood flood-opacity="0" result="BackgroundImageFix"/>
      <feColorMatrix in="SourceAlpha" type="matrix" 
         values="0 0 0 0 0 0 0 0 0 0 0 0 0 0 0 0 0 0 127 0" 
         result="hardAlpha"/>
      <feOffset dy="3.14537"/>
      <feComposite in2="hardAlpha" operator="out"/>
      <feColorMatrix type="matrix" 
         values="0 0 0 0 0 0 0 0 0 0 0 0 0 0 0 0 0 0 0.25 0"/>
      <feBlend mode="normal" in2="BackgroundImageFix" result="effect1_dropShadow"/>
      <feBlend mode="normal" in="SourceGraphic" in2="effect1_dropShadow" result="shape"/>
    </filter>
  </defs>
  <g>
    <g filter="url(#filter1_d)">
      <path d="M122.612 40.068C120.988 40.5628 121.019 40.5413 107.315 52.6977C101.763 57.591 97.0664 61.6114 96.9096 61.5837C96.7528 61.556 96.378 58.3376 96.1231 54.4399C95.601 47.0196 94.8666 42.6331 93.9936 41.3205C92.9609 39.845 91.6883 39.7281 89.9976 40.9115C88.2147 42.1594 87.0957 43.7669 81.802 52.6932C77.4613 60.0364 76.3392 61.5087 75.2726 61.2935C73.8924 61.0229 71.5349 58.9633 59.9593 47.9213C53.6613 41.933 47.8796 36.6825 47.0897 36.2736C44.5169 34.8226 43.1366 36.842 44.1293 40.6814C44.4243 41.7572 46.4374 46.9891 48.598 52.3009C54.6035 66.9667 57.6277 76.3914 56.5518 77.1444C56.3059 77.3165 54.231 77.1658 51.8918 76.8337C43.4848 75.619 37.9672 75.1299 36.9867 75.4957C36.2335 75.7938 35.9907 76.1012 35.9261 76.925C35.8523 77.801 36.0244 78.0469 37.2016 79.0091C37.9639 79.5748 42.4547 82.0649 47.173 84.4874C51.8912 86.9098 56.0654 89.2093 56.4588 89.5752C57.6484 90.6203 57.4147 91.3335 55.5334 92.8334C54.5928 93.5834 49.7235 97.3578 44.7006 101.24C32.9579 110.375 31.3102 112.078 32.5366 113.83C33.9566 115.859 38.1986 115.179 55.0714 110.102C62.2674 107.951 68.4737 106.218 68.8395 106.282C69.3928 106.353 69.4235 106.79 69.0145 108.496C67.9384 112.913 65.9613 124.418 66.0903 125.519C66.4191 128.082 68.0113 128.525 70.0709 126.625C70.6919 126.008 73.9135 122.104 77.2735 117.874C80.6028 113.667 83.3971 110.199 83.5016 110.218C83.6061 110.236 84.4575 112.434 85.3703 115.047C87.6046 121.315 91.7907 131.025 93.727 134.25C95.1132 136.623 95.3376 136.878 96.2874 136.992C98.4791 137.244 98.7466 136.187 101.041 119.834C101.874 113.892 102.772 108.959 102.999 108.891C103.227 108.823 105.569 109.749 108.157 110.96C114.658 113.967 118.885 115.359 120.637 115.049C122.026 114.809 122.088 114.766 122.272 113.721C122.561 112.236 120.271 108.114 116.592 103.316C115.016 101.259 113.725 99.4148 113.783 99.2366C113.789 99.0491 116.648 99.3382 120.075 99.9162C130.031 101.512 139.056 102.432 141.869 102.066C144.07 101.808 144.964 100.403 143.91 98.8971C143.458 98.2515 136.186 94.2735 125.812 88.9398C121.662 86.8063 118.269 84.9679 118.244 84.8019C118.219 84.6359 121.426 82.346 125.333 79.7489C133.433 74.3086 134.675 73.0729 133.839 71.5513C133.23 70.4201 132.741 70.4416 123.409 71.5692C115.365 72.5738 112.383 72.8288 112.146 72.4907C112.06 72.3677 112.552 71.1074 113.247 69.6136C113.932 68.172 115.482 64.8892 116.715 62.3318C120.53 54.303 124.105 45.8009 124.637 43.5508C125.058 41.9279 125.031 41.1686 124.579 40.5231C124.062 39.7853 123.749 39.73 122.612 40.068Z" fill="black"/>
    </g>
    <g filter="url(#filter2_d)">
      <path d="M101.296 73.6734C97.0175 69.9814 89.6312 67.4112 83.8062 67.5953C80.8737 67.7243 76.5087 68.9474 73.5884 70.5334C65.3502 74.9255 63.8772 86.1696 70.5378 93.9192C77.3152 101.77 90.3298 105.119 98.2422 101.046C104.59 97.7482 108.405 90.6354 107.357 83.9036C106.992 81.549 106.684 80.8481 104.948 78.1707C103.675 76.2218 102.347 74.5864 101.296 73.6734Z" fill="black"/>
    </g>
    <path d="M93.995 84.9665C93.371 84.533 92.083 85.5719 92.1752 86.4234C92.3564 87.9911 94.5327 88.025 94.8095 86.4574C94.9294 85.7781 94.7235 85.4184 93.995 84.9665Z" fill="black"/>
    <path d="M82.6126 78.3233C81.5152 78.5876 81.0663 79.4513 81.555 80.3458C82.099 81.3848 83.4792 81.1974 83.7867 80.0662C84.0265 79.1656 83.3165 78.1512 82.6126 78.3233Z" fill="black"/>
    <path d="M84.6217 91.2058C82.6912 92.8317 82.2178 93.0715 81.2587 93.0099C80.2997 92.9484 80.0876 92.7763 79.8602 91.9279C79.6512 90.9749 80.0233 89.02 80.7273 87.4739C80.9947 86.8745 80.9302 86.7822 80.3462 86.733C79.3134 86.6315 77.9484 89.3272 78.0528 91.1777C78.2155 94.2239 80.61 95.6165 83.4012 94.3042C84.7291 93.6495 86.7734 91.5317 87.0931 90.4835C87.4498 89.2264 86.7673 89.4292 84.6217 91.2058Z" fill="black"/>
  </g>
</svg>
